<?xml version="1.0" encoding="UTF-8"?>
<svg version="1.1" xmlns="http://www.w3.org/2000/svg" width="1024" height="1024">
<path d="M0 0 C1.49958787 -0.1013796 1.49958787 -0.1013796 3.02947044 -0.20480728 C22.96890944 -1.54625647 42.92538889 -2.34467147 62.89924908 -2.96097565 C75.54978457 -3.3614206 88.15078562 -3.91745073 100.77148438 -4.88769531 C185.62959569 -11.27976339 185.62959569 -11.27976339 206.42185974 5.58625412 C211.5029139 10.25367299 215.90080354 15.41217256 220.18774414 20.80639648 C220.92076701 21.72783522 221.65378987 22.64927396 222.40902555 23.59863508 C226.19554907 28.41433336 229.90418955 33.28674101 233.59772301 38.17393684 C254.56736267 65.78502956 273.95304953 86.64397073 309.22939005 91.70883389 C332.93248719 94.81782247 356.90060899 95.10328856 380.77075195 95.06835938 C381.85459039 95.06763229 382.93842882 95.06690521 384.05511084 95.06615609 C412.14094947 95.02786725 440.18427747 94.16591558 468.24451023 93.03093517 C484.5190608 92.37940985 500.78979814 91.93333561 517.07446289 91.62963867 C518.22948759 91.60803256 519.38451229 91.58642644 520.57453774 91.5641656 C527.5253818 91.4356074 534.47632954 91.31350761 541.42731604 91.19293721 C551.55372613 91.01580176 561.67989118 90.82583445 571.80593872 90.62913513 C572.89531204 90.60809778 573.98468535 90.58706042 575.10706998 90.56538557 C590.08651175 90.2720891 605.05952043 89.87147743 620.03332528 89.36720635 C623.06830244 89.26530026 626.10335307 89.16595926 629.13844037 89.06739318 C637.57295718 88.79210059 646.00659497 88.51076579 654.43887942 88.17323164 C657.79453737 88.0431788 661.15063548 87.93123632 664.50708319 87.82370853 C666.03067672 87.77086579 667.55402792 87.71027066 669.07694755 87.6406619 C691.5932296 86.61839284 711.61315196 94.94715472 728.34106445 109.93945312 C743.89607835 124.4614777 754.53842409 144.91159324 755.28236562 166.41187036 C755.2891882 167.77452558 755.29069235 169.13721446 755.28778553 170.49988365 C755.29013776 171.25925883 755.29248999 172.01863401 755.2949135 172.80102056 C755.30156348 175.34224563 755.30114649 177.88341909 755.30073547 180.4246521 C755.30403659 182.26648906 755.30776269 184.1083253 755.31187695 185.95016062 C755.32187687 191.0094309 755.32561051 196.06868932 755.32826626 201.12796807 C755.33217529 206.58562233 755.34175321 212.04326725 755.35047913 217.50091553 C755.3702267 230.68024795 755.38030761 243.85958112 755.38920692 257.03892463 C755.39359264 263.2490096 755.39895871 269.45909371 755.40419579 275.66917801 C755.4212064 296.31925212 755.43569988 316.96932571 755.44294453 337.61940575 C755.44341928 338.95422134 755.44389517 340.28903693 755.44437219 341.62385253 C755.44472675 342.61673841 755.44472675 342.61673841 755.44508848 343.62968259 C755.44628963 346.9831022 755.4475051 350.3365218 755.44873047 353.68994141 C755.44897062 354.35542782 755.44921077 355.02091424 755.4494582 355.70656692 C755.45734626 377.26979632 755.48076871 398.83297063 755.51328641 420.39617599 C755.54763214 443.2134099 755.56729896 466.0306164 755.57058877 488.84787714 C755.57275156 501.27802832 755.58146655 513.70809852 755.60704994 526.13822556 C755.62879083 536.72570684 755.63679066 547.31308748 755.62708316 557.90058856 C755.62254832 563.29813218 755.62437727 568.69546828 755.6438446 574.09298325 C755.66154731 579.04420953 755.66042118 583.99507799 755.64494731 588.94630845 C755.642582 590.72768633 755.64683823 592.50908947 755.65877596 594.29042892 C755.8342923 622.23496997 746.69662545 643.78434021 727.0715332 663.81445312 C705.87142231 683.95259186 678.65038341 686.16059958 650.90896057 686.07485579 C647.33723559 686.06717661 643.76554893 686.07705249 640.19382954 686.08458579 C633.94705199 686.09537495 627.70035236 686.09512058 621.45357132 686.08744431 C612.16413652 686.07606033 602.87476701 686.08191697 593.5853326 686.09106923 C576.99095164 686.10684084 560.39660539 686.1055075 543.80222115 686.09683249 C529.27997843 686.08927824 514.75774843 686.08731925 500.23550415 686.09090042 C498.78913182 686.09124415 498.78913182 686.09124415 497.31353984 686.09159483 C493.3990915 686.09252889 489.48464316 686.09348409 485.57019483 686.09447412 C448.86875564 686.10364587 412.16733854 686.09533906 375.46590276 686.07918343 C342.87707764 686.0649472 310.2882877 686.06622111 277.69946289 686.08056641 C241.06405568 686.09663917 204.42866796 686.10299535 167.79325771 686.09372962 C163.88604673 686.0927675 159.97883575 686.09182898 156.07162476 686.09090042 C155.10960849 686.09066319 154.14759223 686.09042596 153.15642396 686.09018154 C138.64526239 686.08677278 124.13411494 686.09075312 109.62295532 686.09833908 C93.11890889 686.10692398 76.61490252 686.10475717 60.11086106 686.08849685 C50.88037542 686.07970204 41.64997659 686.07909262 32.41949323 686.09043537 C26.24684917 686.0971824 20.07427444 686.09294008 13.90164062 686.07992107 C10.38946877 686.07281374 6.87746887 686.07028353 3.36530268 686.08113901 C-27.82022019 686.15645026 -52.50756347 681.09352252 -75.90893555 659.06445312 C-94.94861311 639.4867627 -99.31777855 615.17736905 -99.22738647 588.82739258 C-99.23084744 586.62264176 -99.23561495 584.41789267 -99.24156821 582.21314716 C-99.25404742 576.18331871 -99.24792179 570.15363341 -99.23860955 564.12380457 C-99.23250642 558.27967571 -99.24052309 552.43557679 -99.24805165 546.59145209 C-99.26381398 533.90785547 -99.26249364 521.22430429 -99.25381491 508.54070339 C-99.24625747 497.44083719 -99.24430316 486.34098762 -99.24788284 475.24111938 C-99.248112 474.50380431 -99.24834115 473.76648923 -99.24857725 473.00683127 C-99.24951132 470.01355717 -99.25046653 467.02028308 -99.25145654 464.027009 C-99.2606261 435.96851189 -99.25232498 407.91004366 -99.23616585 379.85155101 C-99.22192987 354.94301072 -99.22320378 330.03451645 -99.23754883 305.12597656 C-99.25362531 277.11761234 -99.2599757 249.10927362 -99.25071204 221.10090542 C-99.24974994 218.11319924 -99.24881141 215.12549305 -99.24788284 212.13778687 C-99.24764561 211.40217944 -99.24740838 210.66657201 -99.24716396 209.90867344 C-99.24375674 198.81790297 -99.24773266 187.72715097 -99.2553215 176.63638306 C-99.26391063 164.02110878 -99.26173061 151.40588691 -99.24547927 138.79061913 C-99.23760533 132.3565095 -99.23449013 125.92249315 -99.24442673 119.48838425 C-99.25339209 113.59393128 -99.24841025 107.69965774 -99.23249407 101.80522096 C-99.2291541 99.67754619 -99.2308226 97.54985614 -99.23812144 95.42219126 C-99.32305893 68.59601755 -93.12826902 46.28946866 -73.84643555 26.68945312 C-73.08588867 25.91601562 -72.3253418 25.14257812 -71.54174805 24.34570312 C-51.73934575 5.38733765 -26.19407261 1.69369953 0 0 Z " fill="#FFC927" transform="translate(183.846435546875,168.310546875)"/>
<path d="M0 0 C1.00031982 -0.06670234 2.00063963 -0.13340467 3.03127217 -0.20212829 C30.60892286 -2.02826604 58.21426395 -3.0925912 85.84106445 -3.81054688 C87.11267961 -3.84513803 88.38429476 -3.87972919 89.6944437 -3.91536856 C205.90464631 -7.0127952 205.90464631 -7.0127952 242.74907154 27.66432559 C248.06314589 32.82358205 252.84782533 38.38778956 257.52856445 44.12695312 C258.3560104 45.14113312 259.18345634 46.15531311 260.03597641 47.20022583 C286.15356445 79.76277881 286.15356445 79.76277881 286.15356445 87.68945312 C285.51041701 87.69042993 284.86726957 87.69140674 284.20463282 87.69241315 C246.03361821 87.75076423 207.86266258 87.82462057 169.69171808 87.91843941 C165.10209617 87.92970673 160.51247397 87.94084532 155.92285156 87.9519043 C155.0091921 87.95410798 154.09553265 87.95631166 153.15418654 87.95858213 C138.38643375 87.99389438 123.61868101 88.01879273 108.85090173 88.03980014 C93.68262956 88.06161068 78.51441188 88.09471069 63.3461861 88.13815469 C53.99672797 88.16458117 44.64733765 88.18234272 35.29784404 88.18879917 C28.87483974 88.19408073 22.45192055 88.21038978 16.02896196 88.23511878 C12.3307029 88.24903962 8.63259586 88.25834029 4.93430901 88.25446129 C-23.256317 88.12688345 -23.256317 88.12688345 -49.84643555 96.68945312 C-50.76811523 97.13160156 -51.68979492 97.57375 -52.6394043 98.02929688 C-72.40723171 108.0944389 -87.0936068 125.90285757 -94.07299805 146.87304688 C-95.59661004 152.42114912 -96.75814877 158.04190433 -97.84643555 163.68945312 C-98.17643555 163.68945312 -98.50643555 163.68945312 -98.84643555 163.68945312 C-98.91628158 152.58789273 -98.96942128 141.48638556 -99.00187206 130.38464928 C-99.01745536 125.22835849 -99.0385579 120.07221924 -99.07275391 114.91601562 C-99.10561116 109.92985187 -99.12334356 104.94383288 -99.13106728 99.95756912 C-99.13656386 98.06559601 -99.14729572 96.17362983 -99.16362572 94.28171921 C-99.36947297 69.41984731 -93.66608273 47.66465013 -76.21362305 29.09570312 C-75.43245117 28.30164063 -74.6512793 27.50757813 -73.84643555 26.68945312 C-73.08588867 25.91601562 -72.3253418 25.14257812 -71.54174805 24.34570312 C-51.74270243 5.39055125 -26.19225212 1.68671071 0 0 Z " fill="#FFA000" transform="translate(183.846435546875,168.310546875)"/>
</svg>
